<?xml version="1.0" encoding="utf-8"?>
<!-- Generator: Adobe Illustrator 16.0.4, SVG Export Plug-In . SVG Version: 6.00 Build 0)  -->
<!DOCTYPE svg PUBLIC "-//W3C//DTD SVG 1.1//EN" "http://www.w3.org/Graphics/SVG/1.1/DTD/svg11.dtd">
<svg version="1.1" id="Layer_1" xmlns="http://www.w3.org/2000/svg" xmlns:xlink="http://www.w3.org/1999/xlink" x="0px" y="0px"
	 width="559.5px" height="554.376px" viewBox="0 -13.376 559.5 554.376" enable-background="new 0 -13.376 559.5 554.376"
	 xml:space="preserve">
<path fill="#57A1F2" stroke="#2D5F96" stroke-width="3" stroke-linecap="round" stroke-linejoin="round" stroke-miterlimit="10" d="
	M424.5,252.312l32,71l78-34l-29-58v-10l4-6h4l3,3l31,63l8-4l-2,24l-7,4l4,11v4l-5,19l-1,2l-11-29l-68,30l28,60l24-13l9-2l-17,29
	l-7,5l1,3l-22,28l-21-46v-10l4-5l6-3l-19-40l-62,28l29,66l23,44l-13,9l-19-36l-45-14l-16,48l9,3l4,8v5l-6,18l-31,7h-3l2-7l-85-25
	l-8,30l-14-3l7-24l-11-3l-4-3l-2-6l1-7l7-25l5-6l16,4l13-47l-60-16l-31,111l-13-6l30-108l-65-19l-21,65l-9,9l-2-1l-10-13l3-3l-19-19
	l-10-16l-13-27l1-5l5-5l63-7l-4-42l-80,11l-3-15l-1-7l81-10l-10-70l-71,9l4-22l50-7l-5-49l2-10l134-137l39-10l-32,29l-129,131l5,44
	l12,1l3,7l11,82l60-13l-15-58v-5l2-6l14-14l-28-29l-2-8l4-10l53-49l5-1l35,39l17-13l57,10l7-38l-65-11l-2-2l-1-10l5-33l4-6h3l67,10
	l10-47l13,3l-13,64l21,3l23,13l32-56l14,8l-41,71l-3,1l-29-15l-22-4l-10,53l17,4l28,13l15,13l100-92l12,13l-100,93l9,11l11,31
	l128-53l3,7l4,13l-127,53L424.5,252.312z M320.5,221.312l45-44l-6-6l-26-11l-19-5l-14,60l13,12L320.5,221.312z M335.5,232.312l-8,8
	l10,8l59-22l-8-23l-10-13l-13,12L335.5,232.312z M407.5,252.312l-3-7l-66,25l-15,15l23,24l14-14l-2-7l1-7l5-6h2l5,6l4,17l-3,10
	l-45,45l-4,1l-16-6l-3-4l-1-8l4-8l4-1l12,4l10-10l-22-23l-20,17l-23,80l88,25l13-55l2-3l71-33l-29-63L407.5,252.312z M341.5,517.312
	h2l1-3h-2L341.5,517.312z M224.5,478.312l-1,4l5,2l2-5L224.5,478.312z M397.5,433.312l-19-44l-9,35L397.5,433.312z M333.5,494.312
	l17-53l-88-25l-15,53L333.5,494.312z M254.5,391.312l23-80l-35-34l-69,17l-67,14l5,44l69,20l11-38l4-4l5,1l3,4v10l-9,31
	L254.5,391.312z M44.5,380.312l36,36l14-42L44.5,380.312z M478.5,407.312l-1,1l11,23h2l-4-9L478.5,407.312z M318.5,65.312v-3l-58-10
	l-1,10l57,9L318.5,65.312z M308.5,276.312l14-15l-31-28l-35,33l30,28L308.5,276.312z M234.5,156.312l-71,62l14,53l64-16l45-43l14-60
	l-49-10L234.5,156.312z M201.5,161.312l17-16l-24-27l-40,37l24,24L201.5,161.312z"/>
</svg>
